<?xml version="1.0" encoding="UTF-8" standalone="no"?>
<!-- Created with Inkscape (http://www.inkscape.org/) -->

<svg
   width="44.069473mm"
   height="44.069435mm"
   viewBox="0 0 44.069473 44.069435"
   version="1.1"
   id="svg1"
   xml:space="preserve"
   xmlns="http://www.w3.org/2000/svg"
   xmlns:svg="http://www.w3.org/2000/svg"><defs
     id="defs1" /><g
     id="layer1"
     transform="translate(-86.845385,-156.09422)"><path
       style="fill:#00006f"
       d="m 89.152571,199.94603 c -0.132787,-0.13279 -0.241431,-0.59265 -0.241431,-1.02191 0,-0.5955 -0.224406,-0.8063 -0.946804,-0.88942 -0.680962,-0.0784 -0.946804,-0.30229 -0.946804,-0.79753 0,-0.6312 0.229528,-0.68859 2.75434,-0.68859 2.524811,0 2.754339,0.0574 2.754339,0.68859 0,0.49139 -0.265171,0.71921 -0.925948,0.79551 -0.714671,0.0825 -0.950346,0.31754 -1.032877,1.02994 -0.102546,0.88516 -0.909315,1.38891 -1.414815,0.88341 z m 6.024692,-0.19553 c -0.227233,-0.22723 -0.413151,-1.22514 -0.413151,-2.21758 0,-0.99243 -0.154931,-1.90018 -0.344292,-2.01721 -0.433373,-0.26784 -0.462346,-8.94944 -0.03254,-9.7489 0.171466,-0.31893 1.004273,-1.09773 1.850682,-1.73065 1.454059,-1.08732 1.572041,-1.30405 2.139429,-3.93008 0.982557,-4.54755 0.598654,-4.38719 10.502709,-4.38719 9.8871,0 9.47603,-0.17077 10.45103,4.34177 0.57139,2.64458 0.6823,2.84717 2.16613,3.95678 0.86015,0.64322 1.70419,1.43044 1.87566,1.74937 0.42981,0.79946 0.40084,9.48106 -0.0325,9.7489 -0.18936,0.11703 -0.34429,1.02478 -0.34429,2.01721 0,0.99244 -0.18592,1.99035 -0.41315,2.21758 -0.23787,0.23788 -1.37717,0.41315 -2.68548,0.41315 -2.63535,0 -3.09863,-0.31914 -3.09863,-2.13461 v -1.30831 h -7.91873 -7.91873 v 1.30831 c 0,1.81547 -0.46328,2.13461 -3.09863,2.13461 -1.308311,0 -2.447606,-0.17527 -2.685481,-0.41315 z m 4.062651,-2.16904 c 0,-0.77466 -0.137717,-0.86073 -1.37717,-0.86073 -1.239452,0 -1.377169,0.0861 -1.377169,0.86073 0,0.77466 0.137717,0.86073 1.377169,0.86073 1.239453,0 1.37717,-0.0861 1.37717,-0.86073 z m 22.034716,0 c 0,-0.77466 -0.13772,-0.86073 -1.37717,-0.86073 -1.23945,0 -1.37717,0.0861 -1.37717,0.86073 0,0.77466 0.13772,0.86073 1.37717,0.86073 1.23945,0 1.37717,-0.0861 1.37717,-0.86073 z m 0.62312,-3.35685 c 0.10879,-0.5653 -0.69361,-0.60251 -12.9924,-0.60251 -10.694106,0 -13.10836,0.0846 -13.10836,0.45905 0,0.25249 0.105145,0.56421 0.233657,0.69272 0.128511,0.12851 5.975093,0.19306 12.992403,0.14345 11.83608,-0.0837 12.76713,-0.13377 12.8747,-0.69271 z m 0.0655,-4.87938 v -2.55541 l -1.63539,-1.40173 -1.63538,-1.40174 h -9.81234 -9.812332 l -1.635389,1.40174 -1.635389,1.40173 v 2.55541 2.55541 h 13.08311 13.08311 z m -24.100466,1.7656 c -1.915991,-0.96913 -2.021944,-3.36635 -0.201505,-4.55915 1.689921,-1.10728 4.003501,0.19606 3.977771,2.24086 -0.0128,1.01438 -0.54583,1.80086 -1.6018,2.36327 -0.935534,0.49827 -1.107471,0.49471 -2.174466,-0.045 z m 1.869012,-2.0809 c 0.280004,-0.44922 0.244449,-0.67115 -0.147549,-0.92104 -0.284041,-0.18107 -0.6375,-0.33159 -0.785464,-0.33449 -0.410498,-0.008 -0.691318,0.96 -0.456214,1.57267 0.248815,0.64841 0.87674,0.50506 1.389227,-0.31714 z m 3.897884,2.15454 c -0.46328,-0.26983 -0.60251,-0.80842 -0.60251,-2.33072 0,-1.08888 0.18592,-2.1657 0.41315,-2.39294 0.57667,-0.57667 10.30297,-0.57667 10.87964,0 0.22723,0.22724 0.41315,1.30631 0.41315,2.39794 0,1.60993 -0.12577,2.05209 -0.66595,2.34119 -0.85796,0.45916 -9.64494,0.44614 -10.43748,-0.0155 z m 9.38197,-2.38247 v -1.03287 h -4.13151 -4.13151 v 1.03287 1.03288 h 4.13151 4.13151 z m 4.64795,2.34682 c -3.08373,-1.80579 -1.02617,-6.10888 2.26848,-4.74419 1.64961,0.68328 1.99995,3.20654 0.60587,4.36353 -0.7609,0.63148 -2.13522,0.81349 -2.87435,0.38066 z m 1.83982,-2.1537 c 0.15581,-0.80374 -0.37595,-1.30371 -1.09367,-1.0283 -0.67593,0.25938 -0.74186,0.8739 -0.15655,1.45921 0.53826,0.53826 1.09986,0.34469 1.25022,-0.43091 z m -16.60868,-7.22004 c 0.10244,-0.26695 -0.0716,-0.98402 -0.38679,-1.5935 -0.31517,-0.60947 -0.50123,-1.48375 -0.41347,-1.94282 0.1313,-0.68687 0.0338,-0.81624 -0.55042,-0.73048 -0.56481,0.0829 -0.82958,0.57939 -1.29495,2.42819 l -0.584966,2.32398 h 1.522176 c 0.99212,0 1.58703,-0.16902 1.70842,-0.48537 z m 3.09863,0 c 0.10244,-0.26695 -0.0716,-0.98402 -0.38678,-1.5935 -0.31518,-0.60947 -0.5028,-1.47558 -0.41695,-1.92468 0.11733,-0.61376 0.003,-0.81655 -0.46155,-0.81655 -0.86957,0 -1.16139,1.21439 -0.51395,2.13875 0.29617,0.42284 0.53849,1.19913 0.53849,1.72508 0,1.02184 0.89848,1.36284 1.24074,0.4709 z m 11.83573,-0.11714 c -0.004,-0.33139 -0.20725,-1.37717 -0.45243,-2.32398 l -0.4458,-1.72146 -4.85794,-0.0954 c -4.61197,-0.0905 -4.8691,-0.0602 -5.0783,0.5989 -0.12797,0.40321 0.005,1.01657 0.31814,1.46307 0.29617,0.42284 0.5385,1.19913 0.5385,1.72508 v 0.95627 h 4.99223 c 4.52752,0 4.99163,-0.0561 4.9856,-0.60251 z m 9.54397,18.28809 c -0.13279,-0.13279 -0.24143,-0.59265 -0.24143,-1.02191 0,-0.5955 -0.22441,-0.8063 -0.9468,-0.88942 -0.68097,-0.0784 -0.94681,-0.30229 -0.94681,-0.79753 0,-0.6312 0.22953,-0.68859 2.75434,-0.68859 2.52481,0 2.75434,0.0574 2.75434,0.68859 0,0.49139 -0.26517,0.71921 -0.92595,0.79551 -0.71467,0.0825 -0.95034,0.31754 -1.03287,1.02994 -0.10255,0.88516 -0.90932,1.38891 -1.41482,0.88341 z m -40.523644,-4.87126 c 0,-0.67367 4.948027,-3.34849 5.52947,-2.98914 0.894595,0.55289 0.207019,1.44612 -1.920918,2.49545 -2.553165,1.25902 -3.608552,1.40341 -3.608552,0.49369 z m 38.216464,-0.0783 c 0,-0.92466 4.93887,-3.45905 5.54995,-2.84796 0.67718,0.67718 0.0657,1.40967 -2.08145,2.49357 -2.45457,1.23907 -3.4685,1.34266 -3.4685,0.35439 z m -38.085632,-2.56289 c -0.294735,-0.76807 0.09396,-1.15127 2.294478,-2.26209 2.408968,-1.21604 3.427662,-1.31736 3.427662,-0.34092 0,0.50183 -0.64026,1.00669 -2.401453,1.89361 -2.680951,1.35011 -3.044983,1.42788 -3.320687,0.7094 z m 38.216462,0 c -0.29474,-0.76807 0.094,-1.15127 2.29448,-2.26209 2.40896,-1.21604 3.42766,-1.31736 3.42766,-0.34092 0,0.50183 -0.64026,1.00669 -2.40145,1.89361 -2.68096,1.35011 -3.04499,1.42788 -3.32069,0.7094 z M 86.845426,189.1435 c 0,-0.92466 4.938871,-3.45905 5.549953,-2.84797 0.677181,0.67718 0.06575,1.40968 -2.08145,2.49358 -2.454569,1.23906 -3.468503,1.34266 -3.468503,0.35439 z m 38.216464,0 c 0,-0.92466 4.93887,-3.45905 5.54995,-2.84797 0.67718,0.67718 0.0657,1.40968 -2.08145,2.49358 -2.45457,1.23906 -3.4685,1.34266 -3.4685,0.35439 z m -38.085632,-2.56289 c -0.294735,-0.76807 0.09396,-1.15127 2.294478,-2.26209 2.408968,-1.21605 3.427662,-1.31737 3.427662,-0.34092 0,0.50183 -0.64026,1.00669 -2.401453,1.89361 -2.680951,1.3501 -3.044983,1.42787 -3.320687,0.7094 z m 38.216462,0 c -0.29474,-0.76807 0.094,-1.15127 2.29448,-2.26209 2.40896,-1.21605 3.42766,-1.31737 3.42766,-0.34092 0,0.50183 -0.64026,1.00669 -2.40145,1.89361 -2.68096,1.3501 -3.04499,1.42787 -3.32069,0.7094 z m -38.347334,-3.2901 c 0,-0.92466 4.938871,-3.45905 5.549953,-2.84797 0.677181,0.67718 0.06575,1.40968 -2.08145,2.49358 -2.454569,1.23906 -3.468503,1.34266 -3.468503,0.35439 z m 38.216464,0 c 0,-0.92466 4.93887,-3.45905 5.54995,-2.84797 0.67718,0.67718 0.0657,1.40968 -2.08145,2.49358 -2.45457,1.23906 -3.4685,1.34266 -3.4685,0.35439 z m -38.085632,-2.56289 c -0.294735,-0.76807 0.09396,-1.15128 2.294478,-2.26209 2.408968,-1.21605 3.427662,-1.31737 3.427662,-0.34092 0,0.50182 -0.64026,1.00668 -2.401453,1.89361 -2.680951,1.3501 -3.044983,1.42787 -3.320687,0.7094 z m 38.216462,0 c -0.29474,-0.76807 0.094,-1.15128 2.29448,-2.26209 2.40896,-1.21605 3.42766,-1.31737 3.42766,-0.34092 0,0.50182 -0.64026,1.00668 -2.40145,1.89361 -2.68096,1.3501 -3.04499,1.42787 -3.32069,0.7094 z m -38.347294,-3.29009 c 0,-0.92466 4.938871,-3.45904 5.549953,-2.84796 0.677181,0.67718 0.06575,1.40967 -2.08145,2.49358 -2.454569,1.23906 -3.468503,1.34266 -3.468503,0.35438 z m 38.216464,0 c 0,-0.92466 4.93887,-3.45904 5.54995,-2.84796 0.67718,0.67718 0.0657,1.40967 -2.08145,2.49358 -2.45457,1.23906 -3.4685,1.34266 -3.4685,0.35438 z m -38.085632,-2.56288 c -0.294735,-0.76807 0.09396,-1.15128 2.294478,-2.2621 2.408968,-1.21604 3.427662,-1.31736 3.427662,-0.34091 0,0.50182 -0.64026,1.00668 -2.401453,1.89361 -2.680951,1.3501 -3.044983,1.42787 -3.320687,0.7094 z m 38.315152,0.27042 c -0.6782,-0.6782 -0.0634,-1.42607 2.0149,-2.45092 2.55316,-1.25902 3.60855,-1.40341 3.60855,-0.49368 0,0.41997 -0.81516,1.01644 -2.58789,1.89361 -2.87263,1.42141 -2.7185,1.36805 -3.03556,1.05099 z m -25.859787,-1.91283 c -0.691723,-0.98758 -0.679031,-1.20972 0.200406,-3.50783 0.902001,-2.35707 1.736961,-2.56379 2.557371,-0.63315 0.91125,2.14438 1.00894,3.45779 0.31428,4.22537 -0.83657,0.92441 -2.39546,0.88158 -3.072057,-0.0844 z m 1.874087,-1.49303 c 0,-0.29522 -0.15493,-0.44101 -0.34429,-0.32398 -0.18936,0.11704 -0.3443,0.35858 -0.3443,0.53676 0,0.17819 0.15494,0.32398 0.3443,0.32398 0.18936,0 0.34429,-0.24155 0.34429,-0.53676 z m 6.07848,1.6286 c -0.75504,-0.83431 -0.71862,-1.67481 0.16469,-3.80027 0.48403,-1.16473 0.93798,-1.76738 1.33126,-1.76738 0.64909,0 2.06576,2.94628 2.06576,4.29621 0,1.67008 -2.41936,2.53372 -3.56171,1.27144 z m 1.84025,-1.60828 c 0,-0.28404 -0.15494,-0.51644 -0.3443,-0.51644 -0.18936,0 -0.34429,0.2324 -0.34429,0.51644 0,0.28404 0.15493,0.51644 0.34429,0.51644 0.18936,0 0.3443,-0.2324 0.3443,-0.51644 z m 5.73418,1.60828 c -0.75504,-0.83431 -0.71862,-1.67481 0.16469,-3.80027 0.48404,-1.16473 0.93798,-1.76738 1.33126,-1.76738 0.6491,0 2.06576,2.94628 2.06576,4.29621 0,1.67008 -2.41936,2.53372 -3.56171,1.27144 z m 1.84025,-1.60828 c 0,-0.28404 -0.15493,-0.51644 -0.3443,-0.51644 -0.18936,0 -0.34429,0.2324 -0.34429,0.51644 0,0.28404 0.15493,0.51644 0.34429,0.51644 0.18937,0 0.3443,-0.2324 0.3443,-0.51644 z m -29.817019,-1.34611 c -0.289721,-0.755 0.134087,-1.23609 1.088917,-1.23609 h 0.840412 v -5.85297 c 0,-5.39391 0.05401,-5.90698 0.688585,-6.54156 0.671583,-0.67158 1.147642,-0.68858 19.280375,-0.68858 18.13274,0 18.6088,0.017 19.28038,0.68858 0.63436,0.63437 0.68858,1.14765 0.68858,6.51869 v 5.83011 l 0.94681,0.10894 c 0.68096,0.0784 0.9468,0.30228 0.9468,0.79752 0,0.63121 -0.22953,0.68859 -2.75434,0.68859 -2.52481,0 -2.75434,-0.0574 -2.75434,-0.68859 0,-0.49524 0.26584,-0.71917 0.94681,-0.79752 0.94416,-0.10864 0.9468,-0.11657 0.9468,-2.84042 v -2.73147 h -1.03288 c -0.86554,0 -1.03287,0.13615 -1.03287,0.84042 0,1.03289 -0.55018,1.42453 -1.22011,0.86853 -0.56564,-0.46944 -0.70801,-4.63671 -0.18654,-5.46026 0.50443,-0.79664 1.40665,-0.16411 1.40665,0.98617 0,0.93012 0.11238,1.04368 1.03287,1.04368 h 1.03288 v -2.06575 -2.06576 H 108.8801 90.632603 v 2.06576 2.06575 h 1.032877 c 0.913507,0 1.032878,-0.11702 1.032878,-1.01256 0,-1.18828 0.514001,-1.62669 1.220105,-1.04068 0.565638,0.46944 0.708006,4.63672 0.18654,5.46026 -0.459366,0.72547 -1.406645,0.17729 -1.406645,-0.81402 0,-0.73885 -0.157255,-0.87154 -1.032878,-0.87154 h -1.032877 v 2.73147 c 0,2.72385 0.0026,2.73178 0.946804,2.84042 0.680962,0.0784 0.946804,0.30228 0.946804,0.79752 0,0.62083 -0.263078,0.69849 -2.673478,0.78924 -2.120173,0.0798 -2.714342,-0.006 -2.870922,-0.41388 z m 10.274757,-5.10938 c -0.190409,-0.2367 -0.837667,-1.41123 -1.438352,-2.61006 -0.862855,-1.72207 -1.007025,-2.28228 -0.68668,-2.66827 0.223011,-0.26871 0.539488,-0.48857 0.703282,-0.48857 0.418047,0 2.716511,4.65368 2.716511,5.50009 0,0.77562 -0.759552,0.93214 -1.294761,0.26681 z m 1.79607,-2.00972 c -1.255301,-2.4927 -1.406609,-3.58503 -0.496593,-3.58503 0.630959,0 3.224345,4.84434 2.960905,5.53085 -0.41745,1.08785 -1.27928,0.40734 -2.464312,-1.94582 z m 4.056902,2.00972 c -0.19041,-0.2367 -0.83767,-1.41123 -1.43835,-2.61006 -0.86286,-1.72207 -1.00703,-2.28228 -0.68668,-2.66827 0.22301,-0.26871 0.53949,-0.48857 0.70328,-0.48857 0.41805,0 2.71651,4.65368 2.71651,5.50009 0,0.77562 -0.75955,0.93214 -1.29476,0.26681 z m 1.79607,-2.00972 c -1.2553,-2.4927 -1.40661,-3.58503 -0.49659,-3.58503 0.63096,0 3.22434,4.84434 2.9609,5.53085 -0.41744,1.08785 -1.27927,0.40734 -2.46431,-1.94582 z m 4.0569,2.00972 c -0.19041,-0.2367 -0.83767,-1.41123 -1.43835,-2.61006 -0.86285,-1.72207 -1.00702,-2.28228 -0.68668,-2.66827 0.22301,-0.26871 0.53971,-0.48857 0.70377,-0.48857 0.43049,0 2.99135,5.25459 2.81053,5.7669 -0.0835,0.2367 -0.3524,0.43037 -0.59748,0.43037 -0.24507,0 -0.60138,-0.19367 -0.79179,-0.43037 z m 1.79607,-2.00972 c -1.2553,-2.4927 -1.40661,-3.58503 -0.49659,-3.58503 0.63096,0 3.22434,4.84434 2.9609,5.53085 -0.41745,1.08785 -1.27927,0.40734 -2.46431,-1.94582 z m 4.0569,2.00972 c -0.19041,-0.2367 -0.83767,-1.41123 -1.43835,-2.61006 -0.86286,-1.72207 -1.00703,-2.28228 -0.68668,-2.66827 0.22301,-0.26871 0.53971,-0.48857 0.70377,-0.48857 0.43323,0 3.12059,5.47692 2.87908,5.86768 -0.28596,0.4627 -1.04686,0.4101 -1.45782,-0.10078 z m 1.81553,-1.97108 c -0.66514,-1.3208 -1.20935,-2.62858 -1.20935,-2.90617 0,-0.79742 0.67628,-1.0075 1.33225,-0.41386 0.89267,0.80786 2.58402,4.54427 2.34225,5.17432 -0.43558,1.1351 -1.27933,0.50044 -2.46515,-1.85429 z m 3.08563,-0.37068 c -1.09112,-2.23793 -1.2597,-2.82891 -0.87482,-3.06678 0.79364,-0.49049 1.21341,-0.0926 2.36407,2.24081 1.25749,2.55007 1.39788,3.5981 0.48197,3.5981 -0.43346,0 -1.02577,-0.83297 -1.97122,-2.77213 z"
       id="path2" /></g></svg>
