<?xml version="1.0" encoding="UTF-8" standalone="no"?>
<!-- Created with Inkscape (http://www.inkscape.org/) -->

<svg
   width="22.845181mm"
   height="22.090572mm"
   viewBox="0 0 22.845181 22.090572"
   version="1.1"
   id="svg1"
   xml:space="preserve"
   fill="#00006f"
   xmlns="http://www.w3.org/2000/svg"
   xmlns:svg="http://www.w3.org/2000/svg"><defs
     id="defs1" /><g
     id="layer1"
     transform="translate(-143.24631,-40.862376)"><g
       id="g2"
       transform="matrix(0.26458333,0,0,0.26458333,141.43984,38.67846)"><path
         d="m 68.148,23.141 h 7.0469 l 0.01953,4.6133 h -7.0469 z m -4.793,-2.5 h 16.672 c 0.5,0 0.98047,-0.21094 1.3164,-0.58594 0.33594,-0.37109 0.49609,-0.86719 0.44531,-1.3633 L 80.88246,9.85196 V 9.84805 C 80.78871,8.94571 80.0309,8.25825 79.12076,8.25825 h -14.895 c -0.91406,-0.00391 -1.6758,0.6875 -1.7617,1.5977 l -0.87109,8.8398 h -0.0039 c -0.04687,0.49609 0.11719,0.99219 0.45312,1.3633 0.33203,0.37109 0.80859,0.58203 1.3086,0.58203 z m -7.4531,52.891 h 31.59 c 1.4414,0 2.6094,-1.1719 2.6133,-2.6133 V 66.8562 C 90.1013,65.4148 88.9333,64.2429 87.4919,64.2429 H 85.156 c -4.4219,0.95703 -8.9375,1.3867 -13.461,1.2773 -4.5195,0.10938 -9.0391,-0.32031 -13.457,-1.2773 h -2.3359 c -1.4453,0 -2.6133,1.1719 -2.6133,2.6133 v 4.0625 c 0,1.4414 1.168,2.6133 2.6133,2.6133 z m 0.19922,-11.797 h 2.3086 c 0.11719,0 0.23438,0.01953 0.34766,0.05078 1.0781,0.29297 2.1758,0.50781 3.2812,0.64844 l -1.1602,-22.48 c -0.07813,-1.4453 0.44531,-2.8594 1.4414,-3.9102 1,-1.0508 2.3828,-1.6445 3.832,-1.6445 h 11.035 c 1.4375,0.0039 2.8125,0.58984 3.8047,1.625 0.99609,1.0391 1.5234,2.4375 1.4648,3.8711 l -0.92578,22.512 v 0.0039 c 1.0469,-0.14062 2.0859,-0.34766 3.1016,-0.625 0.11328,-0.03516 0.23047,-0.05078 0.34766,-0.05078 h 2.3047 l 1.8867,-21.941 c 0.21094,-2.4531 -0.61328,-4.8789 -2.2773,-6.6914 -1.6641,-1.8125 -4.0117,-2.8477 -6.4727,-2.8477 h -17.453 c -2.4609,0 -4.8047,1.0352 -6.4688,2.8477 -1.6641,1.8125 -2.4922,4.2383 -2.2812,6.6875 z m 10.051,-24.836 v 0.0039 c -0.76172,0 -1.4922,0.3125 -2.0156,0.86328 -0.52344,0.55469 -0.80078,1.2969 -0.76172,2.0586 l 1.1836,22.895 c 2.1523,0.19141 4.5977,0.29688 7.1367,0.29688 2.6094,0 5.1211,-0.11328 7.3203,-0.3125 l 0.94141,-22.91 c 0.03125,-0.75781 -0.24609,-1.4922 -0.76953,-2.0352 -0.52344,-0.54687 -1.2461,-0.85547 -2,-0.85547 z m 25.125,51.062 h -82.555 c -1.0469,0 -1.8945,0.84766 -1.8945,1.8906 0,1.0469 0.84766,1.8945 1.8945,1.8945 h 82.555 c 1.0469,0 1.8945,-0.84766 1.8945,-1.8945 0,-1.043 -0.84766,-1.8906 -1.8945,-1.8906 z m -52.43,-2.5 v -9.4258 h -2.2773 v 9.4258 z m -26.34,-11.93 h 31.59 c 1.4453,0 2.6133,-1.1719 2.6133,-2.6133 v -4.0625 c 0,-1.4414 -1.168,-2.6133 -2.6133,-2.6133 h -2.3359 c -4.418,0.95703 -8.9375,1.3867 -13.457,1.2773 -4.5234,0.10938 -9.043,-0.32422 -13.461,-1.2812 h -2.3359 c -1.4414,0 -2.6094,1.1719 -2.6133,2.6133 v 4.0625 c 0,1.4453 1.168,2.6172 2.6133,2.6172 z m 7.3594,11.926 v -9.4219 h -2.2773 v 9.4258 z m 0.09375,-64.82 h 16.676 c 0.5,0 0.97656,-0.21094 1.3125,-0.58203 0.33594,-0.37109 0.5,-0.86719 0.44922,-1.3672 l -0.90625,-8.8398 c -0.09375,-0.90625 -0.85547,-1.5938 -1.7617,-1.5938 h -14.898 c -0.91016,0 -1.6719,0.69141 -1.7578,1.5977 l -0.87109,8.8398 -0.0039,0.0039 c -0.04687,0.49609 0.11328,0.99219 0.44922,1.3633 0.33594,0.36719 0.8125,0.57812 1.3125,0.57812 z m 2.7969,16.262 v 0.0039 c -0.76172,0 -1.4883,0.3125 -2.0156,0.86328 -0.52344,0.55469 -0.79688,1.2969 -0.75781,2.0586 l 1.1836,22.895 c 2.1523,0.19141 4.5977,0.29688 7.1367,0.29688 2.6094,0 5.125,-0.11328 7.3203,-0.3125 l 0.9375,-22.91 c 0.03125,-0.75781 -0.24609,-1.4922 -0.76953,-2.0391 -0.52734,-0.54688 -1.25,-0.85547 -2.0078,-0.85547 z m -10.051,24.836 h 2.3125 c 0.11719,0 0.23438,0.01563 0.34766,0.05078 1.0742,0.29297 2.1719,0.50781 3.2812,0.64844 l -1.1641,-22.48 c -0.07422,-1.4453 0.44922,-2.8594 1.4453,-3.9102 0.99609,-1.0508 2.3789,-1.6445 3.8281,-1.6445 h 11.031 c 1.4375,0 2.8125,0.58984 3.8086,1.625 0.99609,1.0391 1.5234,2.4375 1.4648,3.8711 l -0.92578,22.512 v 0.0039 c 1.0469,-0.14062 2.082,-0.34766 3.1016,-0.625 0.11328,-0.03125 0.23047,-0.05078 0.34766,-0.05078 h 2.3047 l 1.8906,-21.941 c 0.21094,-2.4531 -0.61719,-4.8789 -2.2812,-6.6914 -1.66401,-1.8125 -4.0078,-2.8477 -6.4688,-2.8477 h -17.453 c -2.4609,0 -4.8086,1.0352 -6.4727,2.8477 -1.6641,1.8125 -2.4883,4.2383 -2.2773,6.6875 z m 69.586,23.723 v -9.4219 h -2.2734 v 9.4258 z m -57.52,-57.707 h 7.0469 l -0.01953,-4.6133 h -7.0469 z m 38.543,57.707 -0.0039,-9.4219 h -2.2695 v 9.4258 z"
         id="path1-3" /></g></g></svg>
