<?xml version="1.0" encoding="UTF-8" standalone="no"?>
<!-- Created with Inkscape (http://www.inkscape.org/) -->

<svg
   width="37.593887mm"
   height="30.308235mm"
   viewBox="0 0 37.593887 30.308235"
   version="1.1"
   id="svg1"
   xml:space="preserve"
   fill="#00006f"
   xmlns="http://www.w3.org/2000/svg"
   xmlns:svg="http://www.w3.org/2000/svg"><defs
     id="defs1" /><g
     id="layer1"
     transform="translate(-37.172162,-84.539892)"><g
       id="g1"
       transform="matrix(0.07342556,0,0,0.07342556,37.172163,80.8971)"><g
         id="g19"><g
           id="g18"><g
             id="g17"><g
               id="g16"><path
                 d="m 502.708,318.658 c 0,-1.658 -0.552,-3.322 -1.657,-4.427 -1.045,-1.598 -2.709,-2.15 -4.859,-2.15 -1.657,0 -3.262,0.553 -4.365,2.15 -1.105,1.104 -2.217,2.769 -2.217,4.427 0,1.663 1.111,3.321 2.217,4.984 1.104,1.105 2.708,1.657 4.365,1.657 2.15,0 3.814,-0.552 4.859,-1.657 1.105,-1.663 1.657,-3.321 1.657,-4.984 z m 4.925,-11.01 c 2.703,2.769 4.367,6.583 4.367,11.01 0,4.432 -1.664,8.306 -4.367,11.562 -3.261,2.769 -7.074,4.432 -11.441,4.432 -4.365,0 -8.18,-1.663 -10.948,-4.432 v -0.553 c -2.703,-2.703 -4.858,-6.577 -4.858,-11.009 0,-4.427 2.155,-8.241 4.858,-11.01 v -0.552 c 2.769,-2.703 6.583,-4.367 10.948,-4.367 4.367,0 8.672,1.665 11.441,4.919 z"
                 id="path1" /><path
                 d="m 373.495,440.369 c 2.71,0 4.367,2.217 4.367,4.433 0,2.703 -1.657,4.919 -4.367,4.919 h -23.981 c -2.709,0 -4.925,-2.216 -4.925,-4.919 0,-2.216 2.216,-4.433 4.925,-4.433 z"
                 id="path2" /><path
                 d="m 381.676,98.977 -16.913,9.904 c -2.15,1.658 -4.919,0.553 -6.517,-1.663 -1.111,-2.211 -0.553,-4.979 1.598,-6.09 l 10.396,-6.024 -10.396,-5.537 c -2.15,-1.598 -2.709,-4.366 -1.598,-6.577 1.598,-2.216 4.366,-2.769 6.517,-1.664 l 16.913,9.903 c 2.155,1.105 2.709,3.874 1.597,6.09 -0.492,1.105 -1.045,1.658 -1.597,1.658 z"
                 id="path3" /><path
                 d="m 357.135,453.042 c 2.709,0 4.925,1.657 4.925,4.427 0,2.708 -2.216,4.918 -4.925,4.918 h -51.231 c -2.21,0 -4.366,-2.21 -4.366,-4.918 0,-2.77 2.156,-4.427 4.366,-4.427 z"
                 id="path4" /><path
                 d="m 267.711,240.489 c 1.111,2.217 0.559,4.919 -1.597,6.03 -2.211,1.658 -4.919,0.553 -6.577,-1.663 -2.156,-4.367 -7.074,-11.563 -16.913,-17.586 h -0.558 c -10.331,-6.09 -26.139,-11.562 -51.231,-12.673 -2.149,0 -4.366,-2.21 -4.366,-4.979 0.559,-2.709 2.217,-4.366 4.925,-4.366 26.75,1.104 43.604,7.135 55.598,14.264 6.023,3.567 10.33,7.441 13.651,11.135 3.26,3.628 5.411,7.07 7.068,9.838 z"
                 id="path5" /><path
                 d="m 160.889,64.785 c 0.486,2.209 -0.559,4.979 -3.321,5.532 l -8.18,2.216 c -2.709,0.552 -4.859,-0.553 -5.412,-3.322 -1.11,-2.216 0.553,-4.984 3.256,-5.478 l 8.18,-2.209 c 2.155,-1.106 4.918,0.552 5.477,3.261 z"
                 id="path6" /><path
                 d="m 149.388,84.646 c 0.552,2.769 -0.493,4.919 -3.262,5.472 -2.15,1.111 -4.919,-0.552 -5.411,-3.255 l -2.217,-7.753 c -0.552,-2.763 0.553,-4.919 3.262,-6.024 2.216,-0.552 4.919,1.105 5.472,3.261 z"
                 id="path7" /><path
                 d="m 134.132,63.181 -2.149,-7.748 c -0.553,-2.769 1.045,-4.919 3.255,-5.472 2.709,-1.111 4.925,0.553 5.97,3.256 l 1.658,7.753 c 1.11,2.21 -0.553,4.919 -3.256,5.472 -2.216,0.552 -4.925,-0.552 -5.478,-3.261 z"
                 id="path8" /><path
                 d="m 137.946,70.868 c 0.552,2.216 -1.045,4.985 -3.262,5.478 l -8.18,2.21 c -2.703,1.111 -5.472,-0.553 -5.964,-3.255 -0.553,-2.216 1.045,-4.984 3.261,-5.538 l 8.732,-2.216 c 2.152,-0.553 4.861,0.558 5.413,3.321 z"
                 id="path9" /><path
                 d="m 113.405,415.029 c 0,-0.552 -0.552,-1.657 -1.045,-2.21 -0.552,-0.552 -1.105,-0.552 -2.21,-0.552 -1.111,0 -1.604,0 -2.156,0.552 -0.552,0.553 -1.105,1.658 -1.105,2.21 0,1.113 0.553,1.664 1.105,2.217 0.553,0.554 1.045,1.106 2.156,1.106 1.105,0 1.658,-0.553 2.21,-1.106 0.493,-0.553 1.045,-1.103 1.045,-2.217 z m -15.249,0 c 0,-3.255 1.105,-6.576 3.255,-8.792 2.216,-2.216 5.478,-3.321 8.739,-3.321 3.255,0 6.576,1.105 8.732,3.321 2.15,2.216 3.255,5.537 3.255,8.792 0,3.323 -1.104,6.584 -3.255,8.799 -2.156,2.21 -5.478,3.875 -8.732,3.875 -3.261,0 -6.522,-1.665 -8.739,-3.875 -2.149,-2.215 -3.255,-5.475 -3.255,-8.799 z"
                 id="path10" /><path
                 d="m 117.22,201.379 c 0,-2.217 -0.493,-3.881 -2.15,-5.538 -1.111,-1.598 -3.261,-2.15 -5.478,-2.15 -2.15,0 -4.366,0.553 -5.472,2.15 -1.597,1.657 -2.15,3.321 -2.15,5.538 0,2.21 0.553,4.426 2.15,5.531 1.105,1.598 3.322,2.709 5.472,2.709 2.216,0 4.366,-1.111 5.478,-2.709 1.657,-1.105 2.15,-3.321 2.15,-5.531 z m -7.628,17.093 c -4.859,0 -8.733,-1.658 -11.988,-4.979 -3.261,-2.769 -4.925,-7.135 -4.925,-12.113 0,-4.433 1.664,-8.8 4.925,-12.12 3.255,-3.321 7.129,-4.919 11.988,-4.919 4.925,0 8.732,1.598 11.994,4.919 3.261,3.32 4.919,7.688 4.919,12.12 0,4.979 -1.658,9.345 -4.919,12.113 -3.262,3.32 -7.069,4.979 -11.994,4.979 z"
                 id="path11" /><path
                 d="m 87.268,338.466 c 0,-14.271 5.97,-26.943 15.255,-36.842 9.285,-9.351 22.324,-14.882 36.528,-14.882 14.15,0 27.249,5.531 36.535,14.882 9.285,9.898 15.249,22.571 15.249,36.842 0,14.324 -5.964,27.55 -15.249,36.96 -9.286,9.347 -22.385,15.377 -36.535,15.377 -14.204,0 -27.243,-6.03 -36.528,-15.377 -9.286,-9.41 -15.255,-22.636 -15.255,-36.96 z m 21.771,-30.265 c -7.627,7.688 -12.48,18.763 -12.48,30.265 0,12.114 4.853,22.632 12.48,30.317 7.688,7.688 18.576,12.668 30.012,12.668 11.441,0 22.324,-4.98 30.013,-12.668 7.627,-7.686 12.486,-18.203 12.486,-30.317 0,-11.502 -4.859,-22.576 -12.486,-30.265 -7.688,-7.688 -18.571,-12.113 -30.013,-12.113 -11.436,0 -22.324,4.426 -30.012,12.113 z"
                 id="path12" /><path
                 d="m 97.604,152.358 c 2.763,0 6.024,0 8.732,1.11 l 39.298,11.01 c 1.598,-2.77 3.261,-5.478 5.964,-7.688 3.813,-2.769 8.732,-4.432 13.591,-4.432 6.03,0 11.502,2.216 15.316,6.09 3.813,3.813 5.964,9.351 5.964,15.375 v 2.769 l 51.298,14.33 c 10.33,2.769 17.957,6.024 25.578,10.457 7.076,3.874 14.212,9.345 21.838,17.093 l 3.256,3.261 v -28.6 c 0,-11.01 4.366,-20.968 11.441,-28.103 7.135,-7.135 16.912,-11.562 27.796,-11.562 10.948,0 20.727,4.427 27.802,11.562 7.135,7.135 11.502,17.093 11.502,28.103 l 1.597,21.465 c 1.664,23.682 2.216,35.243 7.075,40.223 3.814,4.918 12.547,6.029 29.46,8.24 6.576,1.11 15.248,2.216 25.646,4.365 0.552,-1.045 1.597,-2.149 2.702,-3.255 1.11,-0.559 2.217,-1.11 3.262,-1.663 v -21.466 c 0,-3.321 1.658,-7.195 3.813,-9.405 2.211,-2.156 6.024,-3.814 9.285,-3.814 3.814,0 7.075,1.658 9.838,3.814 2.156,2.21 3.813,6.084 3.813,9.405 v 78.168 c 0,3.88 -1.657,7.135 -3.813,9.352 -2.763,2.77 -6.023,3.875 -9.838,3.875 -3.261,0 -7.074,-1.105 -9.285,-3.875 -2.155,-2.217 -3.813,-5.472 -3.813,-9.352 v -21.459 c -1.598,-0.553 -3.262,-1.663 -4.858,-3.321 -1.105,-1.111 -2.217,-3.261 -3.322,-4.919 -10.33,-2.216 -19.063,-3.321 -26.69,-4.432 -23.436,-3.875 -35.424,-6.024 -43.604,-14.331 -8.18,-9.345 -9.291,-24.229 -11.994,-55.039 l -1.663,-21.466 c -0.553,-4.984 -2.15,-9.903 -5.472,-13.225 -3.261,-3.321 -7.075,-4.979 -11.441,-4.979 -4.919,0 -8.732,2.21 -11.988,4.979 -3.262,3.321 -4.859,7.688 -4.859,12.114 v 51.17 l 40.836,41.328 c 4.918,5.538 7.627,13.226 7.627,20.912 0,4.979 -1.045,10.457 -2.709,15.437 -2.149,4.984 -4.918,9.352 -8.732,12.672 -5.411,5.473 -12.546,9.346 -20.661,9.346 H 201.231 c -2.769,0 -4.366,-2.21 -4.366,-4.919 v -0.612 c 0,-15.935 -6.583,-30.265 -16.913,-40.715 -10.397,-10.456 -25.094,-17.1 -40.901,-17.1 -15.249,0 -28.9,5.538 -38.684,15.437 -10.391,9.351 -17.465,22.57 -18.571,37.453 0,2.769 -2.708,4.925 -4.918,4.433 -0.493,0 -1.045,0 -1.604,-0.559 -6.023,-2.764 -10.883,-6.084 -14.204,-9.899 v -0.552 c -3.261,-4.433 -5.411,-8.858 -5.411,-13.777 V 184.34 c 0,-1.658 0.552,-3.321 0.552,-4.979 2.15,-7.195 8.18,-13.777 15.808,-18.696 7.627,-4.986 16.852,-8.307 25.585,-8.307 z M 93.79,288.952 c 11.994,-11.069 27.796,-17.652 45.261,-17.652 18.517,0 34.871,7.755 47.418,19.869 10.949,11.009 18.023,26.384 19.129,43.482 h 121.591 c 5.413,0 10.331,-2.768 14.146,-6.642 2.702,-2.157 4.918,-6.03 6.516,-9.904 1.664,-3.262 2.217,-7.688 2.217,-11.563 0,-5.471 -1.664,-11.009 -4.92,-14.27 l -42.005,-42.433 c -1.046,-0.552 -1.604,-2.217 -1.604,-3.321 v -53.387 c 0,-7.195 2.709,-13.772 7.628,-18.757 4.919,-4.366 11.441,-7.688 18.511,-7.688 7.136,0 13.105,3.322 18.024,7.688 4.366,4.984 7.627,11.562 8.18,18.757 l 1.598,21.465 c 2.769,29.153 3.813,42.931 9.837,50.126 5.478,6.024 16.913,7.688 38.133,11.009 8.24,1.105 18.577,2.77 30.012,4.919 2.217,0.553 3.813,2.216 3.813,4.428 0,1.11 0.554,2.216 1.106,2.768 1.109,1.105 1.663,1.664 2.708,1.664 2.769,0 4.919,2.149 4.919,4.366 v 25.333 c 0,1.111 0.553,2.216 1.111,2.77 0.552,1.11 1.657,1.11 2.702,1.11 1.105,0 2.217,0 3.262,-1.11 0.553,-0.554 1.104,-1.658 1.104,-2.77 v -78.168 c 0,-1.105 -0.552,-2.21 -1.104,-2.763 -1.045,-0.559 -2.156,-1.111 -3.262,-1.111 -1.045,0 -2.15,0.553 -2.702,1.111 -0.559,0.553 -1.111,1.657 -1.111,2.763 v 25.339 c 0,2.709 -2.15,4.367 -4.919,4.919 -0.553,0 -1.599,0 -2.15,0.559 -0.558,0.554 -1.11,1.105 -1.664,2.211 -0.552,2.216 -2.703,3.32 -4.919,2.769 -11.441,-1.657 -20.666,-3.321 -28.906,-4.426 -18.511,-2.77 -28.288,-3.874 -34.871,-11.009 -6.517,-7.688 -7.628,-19.803 -9.285,-46.253 -0.492,-6.084 -1.045,-13.22 -1.598,-21.46 v -0.558 c 0,-8.301 -3.261,-15.988 -8.738,-21.525 -5.472,-5.472 -13.099,-8.793 -21.279,-8.793 -8.174,0 -15.802,3.321 -21.213,8.793 -5.478,5.537 -8.733,13.225 -8.733,21.525 v 40.161 c 0,1.105 -0.559,2.217 -1.663,3.321 -1.598,1.664 -4.366,1.664 -6.517,0 l -10.948,-11.561 c -7.076,-7.136 -13.04,-12.114 -20.176,-15.988 -6.516,-3.813 -13.591,-6.583 -22.876,-9.352 L 181.06,184.338 c -2.21,0 -3.321,-2.217 -3.321,-4.427 v -6.09 c 0,-3.262 -1.598,-6.583 -3.813,-8.793 -2.15,-2.216 -5.412,-3.321 -8.733,-3.321 -3.255,0 -5.411,0.553 -7.621,2.211 -2.156,2.216 -3.813,4.432 -4.366,7.2 v 0.487 c -1.051,2.216 -3.262,3.88 -5.97,3.32 l -43.111,-12.666 c -2.15,-0.553 -4.307,-0.553 -6.517,-0.553 -7.075,0 -14.702,2.211 -20.727,6.643 -5.97,3.813 -10.336,8.793 -11.441,13.219 -0.552,1.111 -0.552,1.664 -0.552,2.77 v 128.847 c 0,2.703 1.105,5.472 3.321,7.688 v 0.552 c 1.598,1.664 3.261,3.322 5.411,4.427 2.764,-14.33 9.834,-26.996 20.17,-36.9 z"
                 id="path13" /><polygon
                 points="20.168,278.502 18.019,269.643 26.75,266.935 28.907,275.732 "
                 id="polygon13" /><polygon
                 points="11.436,280.651 20.168,278.502 22.938,286.742 14.205,289.511 "
                 id="polygon14" /><polygon
                 points="9.286,272.412 6.577,264.171 15.31,261.403 18.019,269.643 "
                 id="polygon15" /><polygon
                 points="2.769,283.421 0,275.181 9.286,272.412 11.436,280.651 "
                 id="polygon16" /></g></g></g></g></g></g></svg>
