<?xml version="1.0" encoding="UTF-8" standalone="no"?>
<!-- Created with Inkscape (http://www.inkscape.org/) -->

<svg
   width="98.379456"
   height="98.285728"
   viewBox="0 0 26.029564 26.004765"
   version="1.1"
   id="svg1"
   xml:space="preserve"
   xmlns="http://www.w3.org/2000/svg"
   xmlns:svg="http://www.w3.org/2000/svg"><defs
     id="defs1" /><g
     id="layer1"
     transform="translate(-0.17580796,-0.18059047)"><path
       style="fill:#ffffff;fill-opacity:1"
       d="m 3.1021412,26.105486 c -0.330536,-0.118328 -0.556396,-0.281859 -0.740717,-0.536307 -0.316037,-0.436277 -0.299847,0.01034 -0.299847,-8.271299 V 9.7413882 l -0.215947,-0.111589 c -0.790304,-0.408383 -1.39804105,-1.21725 -1.58788905,-2.113401 -0.09913,-0.467925 -0.113104,-6.84542003 -0.01547,-7.05970503 0.140881,-0.309201 0.526919,-0.361124 0.78276005,-0.105283 l 0.172757,0.172757 v 2.82509403 2.825094 h 0.4573 0.457299 v -2.792217 c 0,-2.99703203 -9.9e-5,-2.99584103 0.261424,-3.13108003 0.228171,-0.117991 0.39193,-0.08976 0.582039,0.100352 l 0.172758,0.172757 v 2.82509403 2.825094 h 0.457299 0.457299 v -2.792217 c 0,-2.99703203 -9.9e-5,-2.99584103 0.261424,-3.13108003 0.228171,-0.117991 0.391931,-0.08976 0.58204,0.100352 l 0.172757,0.172757 v 2.82509403 2.825094 h 0.4573 0.457299 v -2.792217 c 0,-2.99703203 -10e-5,-2.99584103 0.261424,-3.13108003 0.228905,-0.118371 0.391876,-0.08981 0.584037,0.10235 l 0.174756,0.174756 -0.01519,3.47093603 c -0.01501,3.429366 -0.01654,3.474892 -0.12768,3.801208 -0.250604,0.7358 -0.800874,1.421138 -1.427897,1.778386 l -0.312132,0.177839 -5.51e-4,7.5489198 c -6.13e-4,8.408533 0.02346,7.843128 -0.35432,8.321059 -0.376939,0.476863 -1.08642,0.682278 -1.654328,0.478974 z m 0.730453,-1.000209 c 0.273148,-0.14125 0.261424,0.222445 0.261424,-8.10976 V 9.2246202 l 0.139731,-0.146506 c 0.07685,-0.08058 0.248788,-0.185894 0.382081,-0.234035 0.504989,-0.182385 1.017124,-0.685826 1.205878,-1.185407 0.195449,-0.517302 0.432856,-0.468097 -2.258467,-0.468097 h -2.359974 l 0.07782,0.266758 c 0.105925,0.363099 0.27403,0.640139 0.55876,0.920847 0.221724,0.218592 0.764096,0.539971 0.911278,0.539971 0.03497,0 0.122779,0.07035 0.195128,0.156331 l 0.131544,0.156332 0.0018,7.7828928 c 0.0015,6.362622 0.01408,7.805053 0.06911,7.904328 0.133261,0.24043 0.426029,0.320587 0.68389,0.187242 z m 20.3561278,1.000209 c -0.330536,-0.118328 -0.556396,-0.281859 -0.740717,-0.536307 -0.30439,-0.420198 -0.299847,-0.351256 -0.299847,-4.550629 v -3.835823 l -0.628576,-0.640182 c -0.682122,-0.694716 -0.88624,-1.012134 -1.0225,-1.590061 -0.09324,-0.395452 -0.112503,-7.2834428 -0.02267,-8.1068858 0.285201,-2.614403 1.733642,-5.095349 3.775496,-6.46681703 0.406684,-0.27316 0.73959,-0.243893 0.886214,0.07791 0.102495,0.224952 0.08638,24.31121183 -0.0165,24.65763683 -0.236462,0.796255 -1.156338,1.268439 -1.930899,0.991156 z m 0.733188,-1.001623 c 0.07851,-0.0406 0.169053,-0.137778 0.201197,-0.215947 0.04359,-0.106016 0.0551,-3.066161 0.04527,-11.650827 L 25.155197,1.7283892 24.71979,2.1686812 c -1.241749,1.255682 -2.03812,2.950689 -2.230145,4.746669 -0.04121,0.385401 -0.05444,1.671194 -0.04337,4.2130808 l 0.01594,3.658395 0.123581,0.254055 c 0.08164,0.167841 0.366149,0.501028 0.838382,0.981833 l 0.714801,0.727778 0.0254,4.048459 c 0.01397,2.226653 0.04527,4.089164 0.06954,4.138914 0.103527,0.212184 0.44115,0.293645 0.687994,0.165998 z m -12.799747,-2.26884 c -1.328726,-0.149858 -2.7006198,-0.60967 -3.8774148,-1.299578 -0.460301,-0.269856 -0.5916,-0.457388 -0.512743,-0.732345 0.118489,-0.413148 0.491314,-0.466313 1.014372,-0.14465 2.2041998,1.35551 5.1687148,1.589357 7.6576578,0.604053 1.191085,-0.471519 1.960087,-0.995571 3.007658,-2.049634 0.770584,-0.775358 0.821001,-0.81615 1.008719,-0.81615 0.339034,0 0.580639,0.371512 0.450381,0.692542 -0.07159,0.176427 -0.806883,0.978693 -1.240362,1.35333 -2.127065,1.838332 -4.818182,2.695828 -7.508268,2.392432 z m 0.203244,-2.485228 c -3.1500258,-0.438913 -5.5412668,-2.656294 -6.2080058,-5.75664 -0.159376,-0.741104 -0.159376,-2.07265 0,-2.813753 0.623305,-2.8983778 2.766539,-5.0416118 5.6649168,-5.6649168 0.741103,-0.159377 2.07265,-0.159377 2.813753,0 2.905893,0.624921 5.039995,2.759024 5.664916,5.6649168 0.159377,0.741103 0.159377,2.072649 0,2.813753 -0.622478,2.894531 -2.775973,5.054845 -5.638972,5.656828 -0.565641,0.118933 -1.78046,0.17173 -2.296608,0.09981 z m 1.795723,-1.04054 c 4.681298,-0.705603 6.869089,-6.284116 3.91333,-9.9783578 -3.103658,-3.879094 -9.2739478,-2.717581 -10.7625458,2.0259728 -1.358667,4.329515 2.346208,8.631116 6.8492158,7.952385 z m -5.4409288,-5.794759 -0.179893,-0.179893 0.03426,-0.453841 c 0.124923,-1.654829 1.099957,-3.1246878 2.5572208,-3.8549978 0.388724,-0.19481 0.632074,-0.205665 0.801966,-0.03577 0.293332,0.293332 0.194281,0.653885 -0.239973,0.873519 -1.270794,0.6427338 -2.1229828,1.9365718 -2.1229828,3.2232248 0,0.555516 -0.480967,0.797392 -0.850599,0.42776 z M 12.953279,9.4775002 c -0.357641,-0.144326 -0.369781,-0.70778 -0.01916,-0.889095 0.23658,-0.12234 0.398382,-0.09603 0.590425,0.09601 0.410998,0.410997 -0.02346,1.014147 -0.571268,0.79308 z M 6.3991652,20.108152 c -0.502133,-0.406743 -0.03863,-1.149318 0.532903,-0.853765 0.448762,0.232064 0.27461,0.945617 -0.230075,0.942685 -0.107017,-6.22e-4 -0.243182,-0.0406 -0.302828,-0.08892 z M 19.099287,6.8299622 c -1.215051,-1.134386 -2.630056,-1.855957 -4.292584,-2.18897 -0.487069,-0.09756 -0.736524,-0.115295 -1.617509,-0.114979 -1.409872,5.05e-4 -2.2256,0.162538 -3.4585388,0.686991 -0.691728,0.29424 -0.858894,0.310129 -1.067552,0.101472 -0.172072,-0.172073 -0.198208,-0.418474 -0.06462,-0.609201 0.107197,-0.153044 0.863381,-0.511727 1.5597588,-0.739843 3.4334,-1.124699 7.211773,-0.247262 9.812635,2.27875 0.35754,0.34725 0.382672,0.385782 0.382672,0.586718 0,0.297893 -0.209523,0.512109 -0.500892,0.512109 -0.188174,0 -0.246081,-0.03944 -0.753372,-0.513047 z"
       id="path1" /></g></svg>
