<?xml version="1.0" encoding="UTF-8" standalone="no"?>
<!-- Created with Inkscape (http://www.inkscape.org/) -->

<svg
   width="50"
   height="50"
   viewBox="0 0 13.229166 13.229167"
   version="1.1"
   id="svg1"
   xml:space="preserve"
   xmlns="http://www.w3.org/2000/svg"
   xmlns:svg="http://www.w3.org/2000/svg"><defs
     id="defs1" /><g
     id="layer1"><path
       style="fill: current; stroke-width:1.30792"
       d="M 6.0253827,10.495874 C 5.5783463,10.001905 5.4730621,9.9874894 4.9562421,10.349485 4.6409418,10.57033 3.9735136,10.751021 3.4730684,10.751021 0.89854523,10.751021 -0.60286372,8.3105194 0.57289183,6.0368587 0.91665107,5.3721018 0.94696499,5.0667983 0.70731296,4.6830543 0.43285458,4.2435768 0.4965716,4.1875715 1.2710225,4.1875715 c 0.4802291,0 1.4350231,-0.2768956 2.1217645,-0.6153233 1.7482569,-0.8615452 4.8670347,-0.8585049 6.5021593,0.00634 0.6332597,0.3349417 1.6060847,0.6089848 2.1618327,0.6089848 0.955629,0 0.986284,0.026701 0.56505,0.4921614 -0.412837,0.4561778 -0.404172,0.5754932 0.118511,1.6319261 0.477372,0.9648547 0.517018,1.2818537 0.258339,2.0656558 C 12.356309,10.323718 10.162954,11.286931 8.4225426,10.386929 7.6572822,9.991197 7.5660532,9.9989988 7.0617703,10.503283 6.5233943,11.041658 6.5192825,11.04163 6.0253827,10.495796 Z M 5.0317745,8.9365392 C 5.7722627,7.9951606 5.7488545,7.1275495 4.9581665,6.2083199 4.5005696,5.676332 4.0588414,5.4637977 3.4107611,5.4637977 c -0.6480802,0 -1.0898085,0.2125343 -1.5474052,0.7445222 -0.7906881,0.9192296 -0.8140964,1.7868407 -0.073608,2.7282193 0.4371956,0.555804 0.8078632,0.7205729 1.6210132,0.7205729 0.81315,0 1.1838179,-0.1647689 1.6210134,-0.7205729 z M 2.7954378,8.5412992 C 2.2053961,8.1976314 2.1708939,7.1104489 2.7351672,6.6421435 3.055027,6.3766836 3.3124895,6.3674224 3.8290754,6.6027948 4.6638042,6.9831227 4.7506658,8.1388301 3.9756941,8.5535824 3.3461405,8.8905092 3.3958837,8.8910272 2.7954378,8.5412992 Z M 11.25909,9.2465573 C 11.976631,8.7439728 12.303797,7.424765 11.898649,6.6677353 11.397186,5.7307446 10.165115,5.2433824 9.1725513,5.5893919 8.2063958,5.9261953 7.7863939,6.5471603 7.7863939,7.6387992 c 0,1.6428498 2.0605831,2.5968408 3.4726961,1.6077581 z M 9.127216,8.2631641 C 8.7127456,7.8486937 8.6567966,7.6134425 8.875505,7.2047823 9.0301735,6.9157817 9.2802245,6.602997 9.431174,6.5097051 9.8428305,6.2552872 10.721259,6.610132 10.912317,7.1080177 11.383218,8.335167 10.057255,9.193203 9.127216,8.2631641 Z M 8.3365565,4.1384237 C 7.7390342,3.8697618 5.2528645,3.8815881 4.8212489,4.1551454 4.5417361,4.3323 4.6520767,4.5287674 5.28366,4.9784943 5.7398981,5.3033646 6.1875949,5.8036157 6.2785418,6.0901635 6.4249349,6.5514079 6.5761377,6.4800237 7.5969399,5.4677347 8.5012911,4.5709256 8.6608127,4.2842177 8.3365565,4.1384237 Z"
       id="path1" /></g></svg>
