<?xml version="1.0" encoding="UTF-8" standalone="no"?>
<!-- Created with Inkscape (http://www.inkscape.org/) -->

<svg
   width="123.17115mm"
   height="46.353642mm"
   viewBox="0 0 123.17115 46.353642"
   version="1.1"
   id="svg1"
   xml:space="preserve"
   xmlns="http://www.w3.org/2000/svg"
   xmlns:svg="http://www.w3.org/2000/svg"><defs
     id="defs1" /><path
     id="rect2"
     style="fill:#be3547;fill-opacity:1;fill-rule:evenodd;stroke:#ffffff;stroke-width:0.0499999;stroke-linecap:round"
     d="m 5.6587636,0.02499945 c -3.121165,0 -5.63376396,2.51259895 -5.63376396,5.63376395 V 40.694866 c 0,3.12117 2.51259896,5.63377 5.63376396,5.63377 H 117.5124 c 3.12116,0 5.63376,-2.5126 5.63376,-5.63377 V 5.6587634 c 0,-3.121165 -2.5126,-5.63376395 -5.63376,-5.63376395 z M 12.460416,12.32709 c 1.572093,-0.0327 3.397778,0.237195 4.45916,0.237195 h 17.727083 55.562502 15.874999 c 1.91086,0 5.07814,-0.610036 6.83989,0.159163 1.39981,0.61117 0.83302,3.633541 0.83302,4.86792 v 12.435417 c 0,1.121982 0.44002,3.473932 -0.42426,4.338232 -1.07912,1.07911 -4.75203,0.42427 -6.19032,0.42427 H 89.415411 33.323742 17.184159 c -1.910876,0 -5.078135,0.60952 -6.839893,-0.15968 -1.3670314,-0.59686 -0.8330244,-3.40194 -0.8330244,-4.602822 v -12.7 c 0,-1.140949 -0.487058,-3.756353 0.6134004,-4.490682 0.540504,-0.360678 1.392519,-0.489391 2.335774,-0.509013 z m 35.312057,2.334225 c -1.677714,0.05725 -3.323174,0.562424 -4.369759,1.446423 -2.194872,1.853898 -2.591847,5.453864 -0.52555,7.541142 1.134585,1.146108 2.752369,1.615923 3.91139,2.729032 1.502405,1.442889 1.336737,3.317107 -0.764812,3.913456 1.576986,-1.975588 0.752531,-4.489699 -2.116666,-3.82664 -2.877712,0.66503 -3.309813,4.025951 -1.295012,5.883879 1.862798,1.71776 5.092304,1.68291 7.380428,1.00097 0.834501,-0.24871 1.671168,-0.59338 2.377633,-1.11052 5.711284,-4.18076 -1.359541,-7.400761 -3.52795,-10.425207 -1.522285,-2.123248 0.3494,-2.863392 2.208651,-2.634982 v 0.264584 c -2.593941,0.410219 -1.490626,3.19527 0.792716,2.845821 2.436853,-0.37295 2.461299,-3.859168 1.35599,-5.480286 -1.059696,-1.554231 -3.269999,-2.221276 -5.427059,-2.147672 z m 35.577158,0.432014 c -2.4935,-0.09655 -5.13955,0.381123 -7.42797,0.381373 v 17.197915 h 6.87916 l -1.05833,-6.879165 c 1.83612,1.941118 1.72566,4.721776 3.49643,6.585645 3.51685,3.701739 6.02857,-1.05831 6.02857,-4.204395 -2.77417,0.635439 -3.41306,-1.808949 -4.7625,-3.704167 3.95183,-1.173779 4.85889,-6.277608 1.05833,-8.356596 -1.27642,-0.698231 -2.7176,-0.962676 -4.21369,-1.02061 z m -63.107777,0.04238 c -1.966677,0.03237 -3.983247,0.338808 -5.703528,0.338998 l 0.264583,17.197915 c 3.802509,0.0785 13.212782,1.6656 13.729395,-4.233332 0.19861,-2.267848 -2.028983,-3.441819 -2.077393,-5.291667 -0.06999,-2.674497 2.42591,-4.379693 -0.808219,-6.707601 -1.521419,-1.095114 -3.438162,-1.336682 -5.404838,-1.304313 z m 80.661226,0.05478 c -0.29387,0.01696 -0.5953,0.05214 -0.904339,0.106454 -9.11621,1.602018 -7.27848,19.607382 2.910419,17.817512 8.86676,-1.55761 7.10361,-18.449706 -2.00608,-17.923966 z M 31.471659,15.47471 v 17.197915 h 5.820833 l 0.529167,-17.197923 z m 26.45833,0 v 4.7625 c 7.998702,-3.263927 4.491962,8.38398 3.968752,12.435415 h 6.35 c -0.30892,-3.914435 -3.5668,-15.244939 3.96875,-12.170832 V 15.47471 Z m -37.306247,3.175 c 3.209574,0.443579 2.736599,2.91096 -0.264583,3.175 z m 60.324999,0.529166 c 3.214,0.26464 3.85516,3.00815 0.26458,3.175 z m 20.504169,0.586011 c 3.0182,-0.177529 3.59609,7.410468 0.65836,8.473901 -3.699019,1.338999 -4.315249,-7.175232 -1.29398,-8.330241 0.22259,-0.08509 0.43441,-0.131825 0.63562,-0.14366 z m -79.986325,5.781559 c 0.698018,0.02994 1.445775,0.447267 1.582849,1.057817 0.318508,1.418678 -2.034778,1.75423 -2.954858,1.83503 4.87e-4,-0.735609 -0.178601,-1.868841 0.312125,-2.48667 0.24048,-0.302763 0.641073,-0.424143 1.059884,-0.406177 z" /></svg>
